# xmcd
#
# Track frame offsets:
#	150
#	24036
#	46676
#	76081
#	100906
#	122539
#	145517
#	172680
#	195780
#	215317
#	238122
#	265917
#	286903
#
# Disc length: 4114 seconds
#
# Revision: 1
# Processed by: cddbd v1.5.1PL0 Copyright (c) Steve Scherf et al.
# Submitted via: CDex 1.50Beta5
#
DISCID=9210100d
DTITLE=桃乃未琴 - 処方箋
DYEAR=2000
DGENRE=Rock
TTITLE0=空
TTITLE1=宇宙ベッド
TTITLE2=めくるめく愛へのハイウェイ
TTITLE3=Cry&Joy
TTITLE4=この夜が明けないのならば
TTITLE5=ファンキーなの大好き
TTITLE6=Silver&Gold
TTITLE7=太陽とアタシの心
TTITLE8=羽根
TTITLE9=花
TTITLE10=雨上がりのそこに、僕の心ひとつ。
TTITLE11=Rainbow
TTITLE12=あなたは海の底
EXTD=
EXTT0=
EXTT1=
EXTT2=
EXTT3=
EXTT4=
EXTT5=
EXTT6=
EXTT7=
EXTT8=
EXTT9=
EXTT10=
EXTT11=
EXTT12=
PLAYORDER=
